<?xml version="1.0" encoding="utf-8"?>
<!-- Generator: Adobe Illustrator 15.0.0, SVG Export Plug-In . SVG Version: 6.00 Build 0)  -->
<!DOCTYPE svg PUBLIC "-//W3C//DTD SVG 1.1//EN" "http://www.w3.org/Graphics/SVG/1.1/DTD/svg11.dtd">
<svg version="1.1" id="Layer_1" xmlns="http://www.w3.org/2000/svg" xmlns:xlink="http://www.w3.org/1999/xlink" x="0px" y="0px"
	 width="45px" height="45px" viewBox="0 0 45 45" enable-background="new 0 0 45 45" xml:space="preserve">
<path fill="none" stroke="#909299" stroke-width="1.5" stroke-linecap="round" stroke-linejoin="round" stroke-miterlimit="10" d="
	M30.398,29.986l8.649-6.258c0.144-0.104,0.284-0.213,0.427-0.32c1.152-0.872,2.367-0.633,3.629,0.488
	c-2.673,3.688-10.605,11.025-11.196,11.607c-2.679,2.633-6.463,3.333-11.117,2.516c-4.517-1.23-8.333,0.536-11.498,5.093
	L2.52,36.077l6.091-6.092c0.308-0.308,0.611-0.62,0.896-0.949c1.306-1.506,3.338-1.728,5.823-1.149
	c3.727,0.727,7.342,1.397,9.12,1.119c0.558-0.088,1.118-0.16,1.682-0.189c2.174-0.113,3.807,0.262,4.267,1.695
	c0.002,1.353-0.867,2.12-2.362,2.468c-2.547,0.552-5.076,0.594-7.589,0.104c-0.513-0.101-1.034-0.161-1.556-0.155
	c-1.048,0.01-2.059,0.205-3.036,0.576"/>
<g>
	<polyline fill="none" stroke="#2C5787" stroke-linecap="round" stroke-linejoin="round" stroke-miterlimit="10" points="
		34.24,23.217 34.24,10.17 30.918,10.17 30.918,25.635 	"/>
	<polyline fill="none" stroke="#2C5787" stroke-linecap="round" stroke-linejoin="round" stroke-miterlimit="10" points="
		28.656,25.409 28.656,16.539 25.335,16.539 25.335,25.338 	"/>
	<polyline fill="none" stroke="#2C5787" stroke-linecap="round" stroke-linejoin="round" stroke-miterlimit="10" points="
		23.072,25.513 23.072,13.354 19.751,13.354 19.751,25.131 	"/>
	<polyline fill="none" stroke="#2C5787" stroke-linecap="round" stroke-linejoin="round" stroke-miterlimit="10" points="
		17.488,24.728 17.488,19.723 14.167,19.723 14.167,24.123 	"/>
	<polyline fill="none" stroke="#2C5787" stroke-linecap="round" stroke-linejoin="round" stroke-miterlimit="10" points="
		15.143,13.491 20.955,8.924 26.768,11 32.579,3.942 	"/>
	<polyline fill="none" stroke="#2C5787" stroke-linecap="round" stroke-linejoin="round" stroke-miterlimit="10" points="
		33.409,6.849 33.409,3.112 29.673,3.112 	"/>
</g>
</svg>
