<?xml version="1.0" encoding="utf-8"?>
<!-- Generator: Adobe Illustrator 15.0.0, SVG Export Plug-In . SVG Version: 6.00 Build 0)  -->
<!DOCTYPE svg PUBLIC "-//W3C//DTD SVG 1.1//EN" "http://www.w3.org/Graphics/SVG/1.1/DTD/svg11.dtd">
<svg version="1.1" id="Layer_1" xmlns="http://www.w3.org/2000/svg" xmlns:xlink="http://www.w3.org/1999/xlink" x="0px" y="0px"
	 width="45px" height="45px" viewBox="0 0 45 45" enable-background="new 0 0 45 45" xml:space="preserve">
<g>
	<g>
		<g>
			<g>
				<path fill="#015CB9" d="M21.329,8.627c1.866,0,3.379,3.557,3.379,7.944c0,4.388-1.513,7.944-3.379,7.944
					s-3.378-3.557-3.378-7.944C17.951,12.184,19.463,8.627,21.329,8.627 M21.329,7.816c-1.248,0-2.362,1.002-3.136,2.821
					c-0.68,1.599-1.055,3.706-1.055,5.935s0.375,4.336,1.055,5.935c0.773,1.819,1.888,2.821,3.136,2.821
					c1.249,0,2.362-1.002,3.136-2.821c0.68-1.598,1.055-3.706,1.055-5.935s-0.375-4.336-1.055-5.935
					C23.691,8.818,22.578,7.816,21.329,7.816L21.329,7.816z"/>
			</g>
		</g>
		<g>
			<g>
				<path fill="#015CB9" d="M25.871,11.638c1.121,0,1.963,0.313,2.338,0.962c0.934,1.616-1.391,4.704-5.19,6.898
					c-2.273,1.313-4.561,2.008-6.231,2.008c-1.12,0-1.963-0.313-2.338-0.962c-0.933-1.616,1.391-4.705,5.19-6.898
					C21.914,12.333,24.201,11.638,25.871,11.638 M25.871,10.826L25.871,10.826c-1.889,0-4.307,0.771-6.637,2.117
					c-1.93,1.114-3.568,2.492-4.612,3.88c-1.188,1.579-1.499,3.045-0.875,4.126c0.276,0.479,0.71,0.839,1.29,1.072
					c0.49,0.195,1.078,0.295,1.75,0.295c1.889,0,4.308-0.771,6.637-2.116c1.931-1.114,3.568-2.492,4.613-3.88
					c1.188-1.58,1.499-3.045,0.875-4.126c-0.277-0.479-0.711-0.839-1.291-1.072C27.132,10.926,26.543,10.826,25.871,10.826
					L25.871,10.826z"/>
			</g>
		</g>
		<g>
			<g>
				<path fill="#015CB9" d="M16.787,11.638c1.671,0,3.957,0.695,6.231,2.008c3.8,2.193,6.124,5.282,5.19,6.898
					c-0.375,0.649-1.218,0.962-2.338,0.962c-1.67,0-3.957-0.695-6.231-2.008c-3.8-2.194-6.123-5.282-5.19-6.898
					C14.824,11.951,15.667,11.638,16.787,11.638 M16.788,10.826L16.788,10.826c-0.673,0-1.261,0.1-1.751,0.296
					c-0.58,0.232-1.014,0.593-1.29,1.072c-0.624,1.081-0.313,2.546,0.875,4.126c1.044,1.388,2.683,2.766,4.612,3.88
					c2.33,1.345,4.748,2.116,6.637,2.116c0.672,0,1.261-0.1,1.75-0.295c0.58-0.233,1.014-0.594,1.291-1.072
					c0.624-1.081,0.313-2.547-0.875-4.126c-1.045-1.388-2.683-2.766-4.613-3.88C21.095,11.598,18.676,10.826,16.788,10.826
					L16.788,10.826z"/>
			</g>
		</g>
	</g>
	<g>
		
			<path fill="none" stroke="#909299" stroke-width="1.5" stroke-linecap="round" stroke-linejoin="round" stroke-miterlimit="10" d="
			M18.416,32.105c0,0,8.408,5.198,11.745,5.134c3.338-0.063,4.493-2.118,4.622-4.044c0.128-1.925,0.513-5.969,0.609-6.898
			c0.08-0.779,2.214-0.354,2.663-1.701c0.45-1.348-3.594-5.006-3.594-7.06c0-1.212,0.528-2.325,0.488-3.556
			c-0.039-1.233-0.283-2.458-0.703-3.618c-0.717-1.982-1.95-3.783-3.571-5.135c-1.713-1.428-4.196-1.95-6.351-2.302
			c-3.824-0.624-7.903,0.003-11.223,2.053c-2.512,1.551-4.519,3.932-5.606,6.678c-1.279,3.227-0.82,6.377,0.266,9.601
			c2.182,6.482,2.76,10.654,2.76,12.259s-1.091,8.087-1.091,8.087"/>
		
			<line fill="none" stroke="#909299" stroke-width="1.5" stroke-linecap="round" stroke-linejoin="round" stroke-miterlimit="10" x1="24.898" y1="42.695" x2="24.834" y2="36.148"/>
	</g>
</g>
</svg>
